<?xml version="1.0" encoding="UTF-8"?>
<svg version="1.1" xmlns="http://www.w3.org/2000/svg" width="512" height="512">
<path d="M0 0 C168.96 0 337.92 0 512 0 C512 168.96 512 337.92 512 512 C343.04 512 174.08 512 0 512 C0 343.04 0 174.08 0 0 Z " fill="#209CEE" transform="translate(0,0)"/>
<path d="M0 0 C13.69837955 7.68893718 22.139274 22.792822 27 37.375 C27.85087913 46.02596908 25.97461116 54.54147199 24.375 63 C24.17142883 64.09495789 24.17142883 64.09495789 23.96374512 65.21203613 C21.50278851 78.41694117 18.48730596 91.40214615 15 104.375 C14.49090886 106.30670559 13.98185653 108.23842157 13.47372437 110.17037964 C6.57080545 136.36917716 -0.99026577 162.38013424 -8.5546875 188.39404297 C-9.71441004 192.38453768 -10.86256369 196.3780985 -12 200.375 C-6.3626097 196.32537047 -1.210217 191.97343089 3.8125 187.1875 C4.504646 186.53257568 5.19679199 185.87765137 5.90991211 185.20288086 C16.89968284 174.76610265 27.12801905 163.96121585 36.75 152.25 C37.65733887 151.14857666 37.65733887 151.14857666 38.58300781 150.02490234 C42.37670501 145.40314434 46.0878198 140.72626793 49.75 136 C65.36953112 115.90628813 65.36953112 115.90628813 71.5625 115 C74.45102379 115.44438828 75.28012178 116.0531644 77 118.375 C81.86795188 132.97885564 75.57486907 150.14268936 69.19848633 163.29370117 C65.96821739 169.68566681 62.25743744 175.61179025 58 181.375 C57.60474121 181.91157227 57.20948242 182.44814453 56.80224609 183.00097656 C40.7739055 204.56683226 21.39422261 222.96542291 -1.25 237.4375 C-2.05356934 237.95586426 -2.85713867 238.47422852 -3.68505859 239.00830078 C-7.60097045 241.47364309 -11.40278942 243.63471618 -15.71484375 245.328125 C-22.53031371 248.08276884 -27.46044396 250.3489621 -30.5546875 257.34375 C-32.37613804 262.26984991 -33.77730777 267.29913195 -35.140625 272.36816406 C-36.48012125 277.05487878 -38.23214333 281.54877547 -40.0625 286.0625 C-40.39580322 286.88838623 -40.72910645 287.71427246 -41.07250977 288.56518555 C-48.85190212 307.40885738 -61.08973981 323.7126965 -80.29296875 331.75390625 C-92.53222884 336.30457454 -104.2610482 338.91417207 -117.375 338.75 C-118.55602295 338.73984863 -119.7370459 338.72969727 -120.95385742 338.71923828 C-142.42459328 338.33828444 -159.9875756 331.83242944 -175.8125 317.0625 C-186.44239907 306.0142507 -190.40506965 291.70943005 -190.28515625 276.703125 C-189.66397279 269.45314822 -186.79865233 263.77131842 -182 258.375 C-161.70281264 242.44686823 -134.19463837 239.39967333 -109.5390625 235.19891357 C-97.6419662 233.17096876 -85.81771226 230.8240113 -74 228.375 C-72.99425299 224.4389449 -71.99638995 220.50093326 -71 216.5625 C-70.71382813 215.44294922 -70.42765625 214.32339844 -70.1328125 213.16992188 C-69.86210937 212.09677734 -69.59140625 211.02363281 -69.3125 209.91796875 C-69.06113281 208.92821045 -68.80976563 207.93845215 -68.55078125 206.91870117 C-67.89418829 204.320099 -67.89418829 204.320099 -68 201.375 C-68.79921875 201.95507812 -69.5984375 202.53515625 -70.421875 203.1328125 C-93.2027411 219.44987921 -116.41001992 224.4629631 -144.23925781 220.54589844 C-151.69038782 219.29552591 -158.40703201 217.10058222 -165 213.375 C-166.40185547 212.58416016 -166.40185547 212.58416016 -167.83203125 211.77734375 C-183.20777348 202.54348488 -192.35279878 188.66737536 -197 171.375 C-203.10954436 134.25076232 -193.2475171 93.23190143 -172 62.375 C-169.14918678 58.56580759 -166.13369419 54.95314991 -163 51.375 C-162.35417969 50.59640625 -161.70835937 49.8178125 -161.04296875 49.015625 C-155.95503341 43.00543662 -150.20511071 38.19653872 -144 33.375 C-143.10796875 32.64410156 -142.2159375 31.91320312 -141.296875 31.16015625 C-116.92020251 11.78819166 -89.39468437 5.69508522 -58.765625 8.69140625 C-47.75520682 10.20754672 -37.27375532 13.16189698 -27 17.375 C-26.71640625 16.47007813 -26.4328125 15.56515625 -26.140625 14.6328125 C-23.73149509 7.75194147 -20.52823866 2.9229558 -14 -0.625 C-8.98861641 -2.2954612 -4.78464583 -2.23902844 0 0 Z " fill="#FDFEFE" transform="translate(316,87.625)"/>
<path d="M0 0 C-1.40381575 7.99173878 -3.58671516 15.66045445 -5.875 23.4375 C-8.91317862 33.84662252 -11.58581278 44.30250905 -13.98046875 54.87890625 C-14.23572327 55.99921738 -14.49097778 57.1195285 -14.75396729 58.27378845 C-16.02573247 63.87014056 -17.27278584 69.47047016 -18.48583984 75.07983398 C-22.85721444 94.77404373 -30.18800878 115.39141169 -47.3125 127.65625 C-49.82317911 129.23347149 -52.3669207 130.63740065 -55 132 C-56.35738281 132.73283203 -56.35738281 132.73283203 -57.7421875 133.48046875 C-66.73445737 137.83038791 -76.38621139 139.03697871 -86.03125 136.06640625 C-93.25573972 132.39976011 -96.2187266 126.36883505 -99 119 C-99.9582656 115.83499761 -100.12879556 112.97799695 -100.1328125 109.67578125 C-100.13410156 108.64646484 -100.13539063 107.61714844 -100.13671875 106.55664062 C-100.13091797 104.95079102 -100.13091797 104.95079102 -100.125 103.3125 C-100.12886719 102.26126953 -100.13273438 101.21003906 -100.13671875 100.12695312 C-100.10670083 76.00755212 -90.99394632 54.22426366 -74.06640625 36.94140625 C-57.50453508 20.71833644 -37.28336691 8.38199919 -15 2 C-14.18660156 1.75507812 -13.37320313 1.51015625 -12.53515625 1.2578125 C-8.23341205 0.05233332 -4.42057191 -0.1841905 0 0 Z " fill="#219CEE" transform="translate(283,125)"/>
<path d="M0 0 C-13.76311056 29.50283806 -13.76311056 29.50283806 -28 35 C-39.17558104 36.5514013 -47.71357895 34.40998623 -57 28 C-60.184021 24.40790885 -62.65441924 21.30387176 -63.375 16.5 C-62.85863998 13.05759988 -61.70124874 12.17543726 -59 10 C-56.43264579 9.138859 -54.08507064 8.49453701 -51.453125 7.953125 C-50.33759247 7.70795135 -50.33759247 7.70795135 -49.19952393 7.45782471 C-41.24209512 5.75255788 -33.22108472 4.40299587 -25.18408203 3.13476562 C-22.70864624 2.74346304 -20.23517771 2.34109244 -17.76171875 1.9375 C-16.16937343 1.68165229 -14.57692908 1.42642003 -12.984375 1.171875 C-11.88908478 0.99383331 -11.88908478 0.99383331 -10.77166748 0.81219482 C-7.14705773 0.24531374 -3.66991746 -0.1343308 0 0 Z " fill="#249DEE" transform="translate(229,357)"/>
</svg>
